<svg id="Layer_2" data-name="Layer 2" xmlns="http://www.w3.org/2000/svg" viewBox="0 0 172.85 173.23">
  <g id="Layer_1-2" data-name="Layer 1">
    <path d="M44.88,1.15c25.99-3.31,57.88,1.72,84.49,0,22.33,4.37,39.21,21.72,42.75,44.25-1.71,26.48,2.33,55.85,0,81.97-2.06,23.04-23.86,42.48-46.5,44.5-19.41,1.73-59.65,1.9-78.86-.11-20.58-2.15-39.06-19.15-43.92-39.08C-1.01,116.98-.24,67.99,1.08,50.36,2.85,26.85,20.74,4.22,44.88,1.15ZM123.12,105.9v-45.5l-35.65-20.29-36.35,20.29v45.5l35.68-19.82,36.32,19.82ZM97.12,104.9h-21v27h21v-27Z"/>
  </g>
</svg>
